<?xml version="1.0" standalone="no"?> <!DOCTYPE svg PUBLIC "-//W3C//DTD SVG 1.0//EN" "http://www.w3.org/TR/2001/REC-SVG-20010904/DTD/svg10.dtd" > <svg xmlns="http://www.w3.org/2000/svg" width="100%" height="100%">
<defs >
<font id="privateerregular" horiz-adv-x="397" ><font-face
    font-family="Privateer-Regular"
    units-per-em="1000"
    panose-1="0 0 5 0 0 0 0 0 0 0"
    ascent="999"
    descent="-199"
    alphabetic="0" />
<missing-glyph horiz-adv-x="250" />
<glyph unicode=" " glyph-name="space" horiz-adv-x="325" />
<glyph unicode="!" glyph-name="exclam" horiz-adv-x="190" d="M71 702H120Q128 702 134 696T140 681V164Q140 156 134 150T120 143H71Q62 143 56 149T50 164V681Q50 690 56 696T71 702ZM71 90H120Q128 90 134 84T140 70V21Q140 12 134 6T120 0H71Q62 0 56 6T50
21V70Q50 78 56 84T71 90Z" />
<glyph unicode="&quot;" glyph-name="quotedbl" horiz-adv-x="255" d="M116 679V566Q116 558 110 552T95 546H71Q62 546 56 552T50 566V679Q50 688 56 694T71 700H95Q104 700 110 694T116 679ZM205 679V566Q205 558 199 552T184 546H160Q151 546 145 552T139 566V679Q139
688 145 694T160 700H184Q193 700 199 694T205 679Z" />
<glyph unicode="#" glyph-name="numbersign" horiz-adv-x="493" d="M376 154V86Q376 78 370 72T355 65H306Q298 65 292 71T285 86V154H208V86Q208 78 202 72T187 65H139Q130 65 124 71T118 86V154H71Q62 154 56 160T50 174V223Q50 232 56 238T71 244H118V321H71Q62
321 56 327T50 342V391Q50 399 56 405T71 411H118V479Q118 488 124 494T139 500H187Q196 500 202 494T208 479V411H285V479Q285 488 291 494T306 500H355Q363 500 369 494T376 479V411H423Q431 411 437 405T443 391V342Q443 334 437 328T423 321H376V244H423Q431
244 437 238T443 223V174Q443 166 437 160T423 154H376ZM208 321V244H285V321H208Z" />
<glyph unicode="$" glyph-name="dollar" horiz-adv-x="369" d="M230 729V698Q268 690 293 659T319 588V537Q319 526 309 524V523L251 497Q248 495 243 495Q229 495 229 509V588Q229 597 223 603T208 610H161V609Q153 609 147 603T140 588V472Q140 460 185 421T274
339T319 278V109Q319 70 294 39T230 0V-34Q230 -42 224 -48T209 -54H160Q152 -54 146 -48T139 -34V0Q101 8 76 38T50 109V160Q50 171 60 174L118 201Q124 203 126 203Q140 203 140 188V109Q140 100 146 94T161 88H208Q216 88 222 94T229 109V247Q229 259 185 298T95
379T50 441V588Q50 628 75 658T139 697V729Q139 737 145 743T160 750H209Q217 750 223 744T230 729Z" />
<glyph unicode="%" glyph-name="percent" horiz-adv-x="505" d="M132 704H144Q178 704 202 680T226 621V550Q226 516 202 492T144 468H132Q98 468 74 492T50 550V621Q50 655 74 679T132 704ZM334 704H393Q401 704 407 698T414 683L193 21Q193 12 187 6T172 0H113Q105
0 99 6T92 21L313 683Q313 691 319 697T334 704ZM132 534H144Q150 534 154 538T159 550V621Q159 628 155 632T144 637H132Q126 637 122 633T117 621V550Q117 543 121 539T132 534ZM279 82V153Q279 187 303 211T361 236H373Q407 236 431 212T455 154V82Q455 48 431
24T373 0H361Q327 0 303 24T279 82ZM388 82V154Q388 160 384 164T373 169H361Q355 169 351 165T346 153V82Q346 76 350 72T361 67H373Q379 67 383 71T388 82Z" />
<glyph unicode="&amp;" glyph-name="ampersand" horiz-adv-x="418" d="M158 413H347Q355 413 361 407T368 392V342Q368 334 362 328T347 322H319V111Q319 65 286 33T207 0H161Q115 0 83 32T50 111V301Q50 339 72 367Q50 397 50 434V591Q50 637 82 670T161 703H207Q254
703 286 671T319 591V561Q319 551 309 547L250 520Q246 518 243 518Q237 518 233 522T228 533V591Q228 600 222 606T207 612H161Q153 612 147 606T140 591V434Q140 415 158 413ZM161 90H207Q216 90 222 96T228 111V322H157Q140 319 140 301V111Q140 103 146 97T161
90Z" />
<glyph unicode="&apos;" glyph-name="quotesingle" horiz-adv-x="166" d="M116 679V566Q116 558 110 552T95 546H71Q62 546 56 552T50 566V679Q50 688 56 694T71 700H95Q104 700 110 694T116 679Z" />
<glyph unicode="(" glyph-name="parenleft" horiz-adv-x="253" d="M202 725Q140 565 140 347T202 -32Q205 -40 202 -46T189 -52H140Q132 -52 124 -46T112 -32Q50 128 50 346T112 725Q115 733 123 739T140 745H189Q198 745 201 739T202 725Z" />
<glyph unicode=")" glyph-name="parenright" horiz-adv-x="253" d="M64 745H113Q133 745 142 725Q204 565 204 347T142 -32Q133 -52 113 -52H64Q56 -52 52 -46T51 -32Q113 128 113 346T51 725Q48 733 52 739T64 745Z" />
<glyph unicode="*" glyph-name="asterisk" horiz-adv-x="415" d="M269 525L357 462Q364 457 365 449T361 433L345 410Q340 403 332 402T316 406L241 460V370Q241 361 235 355T220 349H192Q184 349 178 355T172 370V458L98 408Q91 403 83 405T70 414L54 437Q42
453 59 466L148 527L65 587Q49 599 60 616L77 639Q89 655 106 644L172 596V679Q172 688 178 694T192 700H220Q229 700 235 694T241 679V591L314 641Q332 652 343 636L359 612Q370 595 354 583L269 525Z" />
<glyph unicode="+" glyph-name="plus" horiz-adv-x="433" d="M262 329H362Q371 329 377 323T383 309V260Q383 251 377 245T362 239H262V138Q262 130 256 124T241 118H192Q184 118 178 124T171 138V239H71Q63 239 57 245T50 260V309Q50 317 56 323T71 329H171V430Q171
438 177 444T192 450H241Q249 450 255 444T262 430V329Z" />
<glyph unicode="," glyph-name="comma" horiz-adv-x="191" d="M75 -38V-34Q75 -26 81 -20T96 -13V0H71Q63 0 57 6T50 21V70Q50 78 56 84T71 90H120Q128 90 134 84T141 70V-38Q141 -46 135 -52T120 -58H96Q87 -58 81 -52T75 -38Z" />
<glyph unicode="-" glyph-name="hyphen" horiz-adv-x="391" d="M71 410H321Q329 410 335 404T341 389V340Q341 332 335 326T321 320H71Q62 320 56 326T50 340V389Q50 398 56 404T71 410Z" />
<glyph unicode="." glyph-name="period" horiz-adv-x="190" d="M140 70V21Q140 12 134 6T120 0H71Q62 0 56 6T50 21V70Q50 78 56 84T71 90H120Q128 90 134 84T140 70Z" />
<glyph unicode="/" glyph-name="slash" horiz-adv-x="381" d="M271 715H331Q339 715 345 709T351 694L130 21Q130 12 124 6T110 0H51Q42 0 36 6T30 21L251 694Q251 702 257 708T271 715Z" />
<glyph unicode="0" glyph-name="zero" horiz-adv-x="379" d="M161 702H218Q264 702 296 670T329 591V111Q329 65 297 33T218 0H161Q115 0 83 32T50 111V590Q50 636 82 669T161 702ZM239 111V591Q239 599 233 605T218 612H161V611Q153 611 147 605T140 590V111Q140
103 146 97T161 90H218Q226 90 232 96T239 111Z" />
<glyph unicode="1" glyph-name="one" horiz-adv-x="273" d="M196 682V55Q196 49 198 45T204 40H206Q223 38 223 20Q223 12 217 6T203 0H98Q90 0 84 6T78 20Q78 38 94 40Q105 41 105 57V609Q99 607 95 604T90 598L89 595Q84 579 66 583Q58 584 53 591T50 607L61
659Q67 687 96 698L105 702H111Q115 702 117 703H173Q173 702 174 702H175Q184 702 190 696T196 682Z" />
<glyph unicode="2" glyph-name="two" horiz-adv-x="369" d="M161 702H207Q254 702 286 669T319 590V443Q319 423 275 381T185 300T140 249V91H228V215Q228 221 232 225T243 230Q246 230 250 228L309 201Q319 197 319 187V14Q319 9 315 5T304 0H64Q58 0 54 4T50
14V280Q50 299 94 341T183 422T228 474V590Q228 599 222 605T207 611V612H161Q153 612 147 606T140 591V511Q140 497 126 497Q122 497 118 499L60 526Q50 529 50 539V591Q50 637 82 669T161 702Z" />
<glyph unicode="3" glyph-name="three" horiz-adv-x="369" d="M161 703H207Q253 703 286 670T319 591V434Q319 399 297 367Q319 337 319 301V111Q319 65 286 33T207 0H161Q115 0 83 32T50 111V207Q50 221 64 221Q68 221 72 219L130 192Q140 189 140 179V111Q140
103 146 97T161 90H207Q216 90 222 96T228 111V301Q228 318 212 322H132Q123 322 117 328T111 342V392Q111 401 117 407T132 413H210Q228 415 228 434V591Q228 600 222 606T207 612H161Q153 612 147 606T140 591V533Q140 518 126 518Q122 518 118 520L60 547Q50
550 50 561V591Q50 637 82 670T161 703Z" />
<glyph unicode="4" glyph-name="four" horiz-adv-x="403" d="M315 344H332Q340 344 346 338T353 323V273Q353 265 347 259T332 253H315V55Q315 49 317 45T322 40H325Q342 38 342 20Q342 12 336 6T322 0H217Q209 0 203 6T197 20Q197 38 214 40Q224 41 224 57V253H67Q60
253 55 258T50 270V339Q50 343 52 347L218 691Q224 702 234 702H322Q330 702 336 696T342 682Q342 664 325 661Q315 661 315 645V344ZM138 344H224V525L138 344Z" />
<glyph unicode="5" glyph-name="five" horiz-adv-x="369" d="M64 703H304Q319 701 319 688V546Q319 537 309 533V532L250 506Q246 504 243 504Q228 504 228 518V612H140V434H207Q208 434 210 434L211 433H215Q259 431 289 399T319 322V111Q319 65 286 33T207 0H161Q115
0 83 32T50 111V207Q50 221 64 221Q68 221 72 219L130 192Q140 189 140 179V111Q140 103 146 97T161 90H207Q216 90 222 96T228 111V322Q228 331 222 337T207 343H64Q59 343 55 347T50 358V688Q50 701 64 703Z" />
<glyph unicode="6" glyph-name="six" horiz-adv-x="369" d="M161 702H207Q253 702 286 670T319 591V539Q319 530 309 526L250 499Q246 497 243 497Q228 497 228 511V591Q228 599 222 605T207 612H161V611Q153 611 147 605T140 590V422Q185 428 207 428H211H215Q259
425 289 393T319 317V111Q319 65 286 33T207 0H161Q115 0 83 32T50 111V590Q50 636 82 669T161 702ZM207 338H199Q182 338 140 335V111Q140 103 146 97T161 90H207Q216 90 222 96T228 111V317Q228 325 222 331T207 338Z" />
<glyph unicode="7" glyph-name="seven" horiz-adv-x="384" d="M64 702H314Q322 702 328 696T334 682V680L225 52Q225 47 227 44T232 40H235Q252 38 252 20Q252 12 246 6T232 0H122Q114 0 108 6T102 20Q102 38 119 40H118Q132 41 135 57L234 611H140V569Q140 555
126 555Q120 555 118 557L60 583Q50 586 50 597V687Q50 702 64 702Z" />
<glyph unicode="8" glyph-name="eight" horiz-adv-x="369" d="M161 703H207Q254 703 286 671T319 591V434Q319 399 297 367Q319 337 319 301V111Q319 65 286 33T207 0H161Q115 0 83 32T50 111V301Q50 339 72 367Q50 397 50 434V591Q50 637 82 670T161 703ZM228
434V591Q228 600 222 606T207 612H161Q153 612 147 606T140 591V434Q140 415 158 413H210Q228 415 228 434ZM228 111V301Q228 318 212 322H157Q140 319 140 301V111Q140 103 146 97T161 90H207Q216 90 222 96T228 111Z" />
<glyph unicode="9" glyph-name="nine" horiz-adv-x="369" d="M161 702H207Q253 702 286 670T319 591V112Q319 66 287 33T207 0H161Q115 0 83 32T50 111V163Q50 173 60 176L118 203Q122 205 126 205Q140 205 140 191V111Q140 103 146 97T161 90H207V91Q216 91 222
97T228 112V301Q175 294 161 294Q159 295 158 295H154Q110 298 80 330T50 406V591Q50 637 82 669T161 702ZM161 385H170Q200 385 228 387V591Q228 599 222 605T207 612H161Q153 612 147 606T140 591V406Q140 397 146 391T161 385Z" />
<glyph unicode=":" glyph-name="colon" horiz-adv-x="191" d="M50 326V375Q50 384 56 390T71 396H120Q128 396 134 390T141 375V326Q141 318 135 312T120 306H71Q63 306 57 312T50 326ZM141 70V21Q141 12 135 6T120 0H71Q63 0 57 6T50 21V70Q50 78 56 84T71 90H120Q128
90 134 84T141 70Z" />
<glyph unicode=";" glyph-name="semicolon" horiz-adv-x="191" d="M71 396H120Q128 396 134 390T141 375V326Q141 318 135 312T120 306H71Q63 306 57 312T50 326V375Q50 384 56 390T71 396ZM75 -38V-34Q75 -26 81 -20T96 -13V0H71Q63 0 57 6T50 21V70Q50 78 56
84T71 90H120Q128 90 134 84T141 70V-38Q141 -46 135 -52T120 -58H96Q87 -58 81 -52T75 -38Z" />
<glyph unicode="&lt;" glyph-name="less" horiz-adv-x="356" d="M70 357L286 447Q294 451 300 444T306 426V386Q306 367 286 357L131 304L286 252Q306 240 306 222V182Q306 173 300 166T286 161L70 251Q50 260 50 275V333Q50 348 70 357Z" />
<glyph unicode="=" glyph-name="equal" horiz-adv-x="432" d="M70 426H362Q370 426 376 420T382 405V356Q382 348 376 342T362 336H70Q62 336 56 342T50 356V405Q50 414 56 420T70 426ZM70 266H362Q370 266 376 260T382 246V197Q382 188 376 182T362 176H70Q62
176 56 182T50 197V246Q50 254 56 260T70 266Z" />
<glyph unicode="&gt;" glyph-name="greater" horiz-adv-x="357" d="M71 444L286 355Q307 344 307 330V273Q307 258 286 249L71 159Q63 156 57 163T50 179V219Q50 238 71 249L225 302L71 354Q50 365 50 384V424Q50 433 56 440T71 444Z" />
<glyph unicode="?" glyph-name="question" horiz-adv-x="399" d="M161 718H238Q284 718 316 685T349 606V459Q349 439 324 414T272 366T246 332V243V164Q246 156 240 150T225 143H176Q168 143 162 149T156 164V195V243V363Q156 382 182 407T233 455T259 490V606Q259
615 253 621T238 627V628H161Q152 628 146 622T140 607V527Q140 513 125 513Q122 513 118 515L59 542Q50 546 50 555V607Q50 653 82 685T161 718ZM176 90H225Q234 90 240 84T246 70V21Q246 12 240 6T225 0H176Q168 0 162 6T156 21V70Q156 78 162 84T176 90Z" />
<glyph unicode="@" glyph-name="at" horiz-adv-x="579" d="M161 618H417Q463 618 496 586T529 507V320Q529 274 496 241T417 208H282Q236 208 204 240T171 319V389Q171 435 203 468T282 501H297Q343 501 375 469T408 390V319Q408 311 406 299V298H417V299Q426
299 432 305T438 320V507Q438 516 432 522T417 528H161Q153 528 147 522T140 507V204Q140 196 146 190T161 183H508Q516 183 522 177T529 163V114Q529 105 523 99T508 93H161Q115 93 83 125T50 204V507Q50 553 82 585T161 618ZM318 319V390Q318 398 312 404T297
411H282V410Q273 410 267 404T261 389V319Q261 311 267 305T282 298H290V299H301Q318 303 318 319Z" />
<glyph unicode="A" glyph-name="A" horiz-adv-x="496" d="M150 0H70Q62 0 56 6T50 20Q50 38 67 40Q76 41 83 51L197 637Q199 645 197 651T190 659L187 661Q170 665 170 682Q170 690 176 696T191 702H270Q279 702 285 696T291 682L411 57Q414 50 418 46T426 40H429Q446
38 446 20Q446 12 440 6T426 0H346Q329 0 326 17L290 205H207L170 17V16V15Q166 0 150 0ZM248 420L224 297H272L248 420Z" />
<glyph unicode="B" glyph-name="B" horiz-adv-x="389" d="M228 0H70Q62 0 56 6T50 20Q50 38 67 40Q77 41 77 57V645Q77 652 75 656T70 660L67 661Q50 664 50 682Q50 690 56 696T70 702H229Q275 701 307 669T339 590V427Q339 391 317 361Q339 333 339 295V112Q339
66 307 33T228 0ZM249 427V590Q249 599 243 605T228 611H168V407H232Q249 410 249 427ZM168 91H232Q249 94 249 112V295Q249 313 232 316H168V91Z" />
<glyph unicode="C" glyph-name="C" horiz-adv-x="369" d="M161 702H207Q253 702 286 670T319 591V539Q319 530 309 526L250 499Q246 497 243 497Q228 497 228 511V591Q228 599 222 605T207 612H161V611Q153 611 147 605T140 590V111Q140 103 146 97T161 90H207Q216
90 222 96T228 111V210Q228 219 238 223L297 250Q301 252 304 252Q319 252 319 238V111Q319 65 286 33T207 0H161Q115 0 83 32T50 111V590Q50 636 82 669T161 702Z" />
<glyph unicode="D" glyph-name="D" horiz-adv-x="389" d="M339 590V112Q339 66 307 33T228 0H70Q62 0 56 6T50 20Q50 38 67 40Q77 41 77 57V645Q77 652 75 656T70 660L67 661Q50 664 50 682Q50 690 56 696T70 702H229Q275 701 307 669T339 590ZM228 611H168V91H232Q249
94 249 112V590Q249 599 243 605T228 611Z" />
<glyph unicode="E" glyph-name="E" horiz-adv-x="346" d="M70 702H273H276Q284 702 290 696T296 682V604Q296 596 290 590T276 584Q259 584 256 601Q256 611 239 611H168V407H240Q248 407 254 401T260 386V336Q260 328 254 322T240 316H168V91H239Q247 91 251
93T256 98V101Q259 118 276 118Q284 118 290 112T296 98V20Q296 12 290 6T276 0H273H152H148H70Q62 0 56 6T50 20Q50 38 67 40Q77 41 77 57V645Q77 652 75 656T70 660L67 661Q50 664 50 682Q50 690 56 696T70 702Z" />
<glyph unicode="F" glyph-name="F" horiz-adv-x="346" d="M175 0H70Q62 0 56 6T50 20Q50 38 67 40Q77 41 77 57V645Q77 652 75 656T70 660L67 661Q50 664 50 682Q50 690 56 696T70 702H273H276Q284 702 290 696T296 682V604Q296 596 290 590T276 584Q259 584 256
601Q256 611 239 611H168V407H240Q248 407 254 401T260 386V336Q260 328 254 322T240 316H168V55Q168 49 171 45T176 40H179Q196 38 196 20Q196 12 190 6T175 0Z" />
<glyph unicode="G" glyph-name="G" horiz-adv-x="369" d="M207 0H161Q115 0 83 32T50 111V590Q50 636 82 669T161 702H207Q253 702 286 670T319 591V539Q319 530 309 526L250 499Q246 497 243 497Q228 497 228 511V591Q228 599 222 605T207 612H161V611Q153 611
147 605T140 590V111Q140 103 146 97T161 90H207Q216 90 222 96T228 111V316H198Q190 316 184 322T177 336V386Q177 395 183 401T198 407H304Q310 407 314 403T319 392V111Q319 65 286 33T207 0Z" />
<glyph unicode="H" glyph-name="H" horiz-adv-x="421" d="M168 316V55Q168 49 171 45T176 40H179Q196 38 196 20Q196 12 190 6T175 0H70Q62 0 56 6T50 20Q50 38 67 40Q77 41 77 57V647Q77 653 75 656T70 660L67 661Q50 664 50 682Q50 690 56 696T70 702H175Q183
702 189 696T196 682Q196 665 179 661Q168 661 168 645V407H252V647Q252 653 250 656T244 660L242 661Q225 665 225 682Q225 690 231 696T246 702H350Q359 702 365 696T371 682Q371 665 354 661Q344 661 344 645V55Q344 49 346 45T352 40H354Q371 38 371 20Q371
12 365 6T350 0H246Q237 0 231 6T225 20Q225 27 230 33T242 40Q252 41 252 57V316H168Z" />
<glyph unicode="I" glyph-name="I" horiz-adv-x="246" d="M175 0H70Q62 0 56 6T50 20Q50 38 67 40Q77 41 77 57V647Q77 653 75 656T70 660L67 661Q50 664 50 682Q50 690 56 696T70 702H175Q183 702 189 696T196 682Q196 665 179 661Q168 661 168 645V55Q168 49
171 45T176 40H179Q196 38 196 20Q196 12 190 6T175 0Z" />
<glyph unicode="J" glyph-name="J" horiz-adv-x="364" d="M288 650V111Q288 65 255 33T176 0H161Q115 0 83 32T50 111V238Q50 252 64 252Q68 252 72 250L130 223Q140 220 140 210V111Q140 103 146 97T161 90H176Q185 90 191 96T197 111V646Q197 653 195 656T190
660L187 661Q170 665 170 682Q170 690 176 696T190 702H294Q302 702 308 696T314 682Q314 664 297 661Q290 661 288 650Z" />
<glyph unicode="K" glyph-name="K" horiz-adv-x="468" d="M395 41H398Q406 41 412 35T418 20Q418 12 412 6T398 0H270Q262 0 256 6T249 20Q249 38 267 40Q275 40 279 47T279 66L187 309L168 274V55Q168 49 171 45T176 40H179Q196 38 196 20Q196 12 190 6T175 0H70Q62
0 56 6T50 20Q50 38 67 40Q77 41 77 57V647Q77 653 75 656T70 660L67 661Q50 664 50 682Q50 690 56 696T70 702H175Q183 702 189 696T196 682Q196 665 179 661Q168 661 168 645V448L270 648Q271 661 259 661Q242 664 242 682Q242 690 248 696T262 702H386Q394 702
400 696T406 682Q406 673 400 667T386 661T371 648Q371 647 369 645L246 417L383 55Q385 49 388 46T393 42L395 41Z" />
<glyph unicode="L" glyph-name="L" horiz-adv-x="346" d="M148 0H70Q62 0 56 6T50 20Q50 38 67 40Q77 41 77 57V645Q77 652 75 656T70 660L67 661Q50 664 50 682Q50 690 56 696T70 702H175Q183 702 189 696T196 682Q196 665 179 661Q168 661 168 645V91H239Q247
91 251 93T256 98V101Q259 118 276 118Q284 118 290 112T296 98V20Q296 12 290 6T276 0H273H152H148Z" />
<glyph unicode="M" glyph-name="M" horiz-adv-x="552" d="M175 0H70Q62 0 56 6T50 20Q50 38 67 40Q77 41 77 57V647Q77 653 75 656T70 660L67 661Q50 664 50 682Q50 690 56 696T70 702H164Q181 702 184 685L275 388L368 688Q373 702 387 702H482Q490 702 496 696T502
682Q502 664 485 661Q475 661 475 645V55Q475 49 477 45T482 40H485Q502 38 502 20Q502 12 496 6T482 0H377Q369 0 363 6T357 20Q357 38 374 40Q384 41 384 57V450L310 219Q301 194 275 194Q250 194 242 216L168 446V55Q168 49 171 45T176 40H179Q196 38 196 20Q196
12 190 6T175 0Z" />
<glyph unicode="N" glyph-name="N" horiz-adv-x="474" d="M175 0H70Q62 0 56 6T50 20Q50 38 67 40Q77 41 77 57V647Q77 653 75 656T70 660L67 661Q50 664 50 682Q50 690 56 696T70 702H164Q178 702 183 688L295 296L305 237V647Q305 653 303 656T298 660L295 661Q278
664 278 682Q278 690 284 696T298 702H403Q412 702 418 696T424 682Q424 665 407 661Q396 661 396 645V55Q396 49 399 45T404 40H407Q424 38 424 20Q424 12 418 6T403 0H309Q294 0 289 15L288 14L179 388L168 448V55Q168 49 171 45T176 40H179Q196 38 196 20Q196
12 190 6T175 0Z" />
<glyph unicode="O" glyph-name="O" horiz-adv-x="389" d="M161 702H228Q274 702 306 670T339 591V111Q339 65 307 33T228 0H161Q115 0 83 32T50 111V590Q50 636 82 669T161 702ZM249 111V591Q249 599 243 605T228 612H161V611Q153 611 147 605T140 590V111Q140
103 146 97T161 90H228Q237 90 243 96T249 111Z" />
<glyph unicode="P" glyph-name="P" horiz-adv-x="410" d="M70 702H250Q296 701 328 669T360 590V397Q360 351 327 319T248 286H168V55Q168 49 171 45T176 40H179Q196 38 196 20Q196 12 190 6T175 0H70Q62 0 56 6T50 20Q50 38 67 40Q77 41 77 57V645Q77 652 75
656T70 660L67 661Q50 664 50 682Q50 690 56 696T70 702ZM270 397V590Q270 599 264 605T248 611H168V377H253Q270 381 270 397Z" />
<glyph unicode="Q" glyph-name="Q" horiz-adv-x="413" d="M314 41L327 -13Q330 -20 334 -24T342 -28L345 -29Q361 -31 363 -49Q363 -57 357 -63T343 -69L290 -71Q288 -71 285 -71T275 -69T260 -62T246 -49T235 -26L228 0H161Q115 0 83 32T50 111V590Q50 636 82
669T161 702H228Q274 702 306 669T339 590V111Q339 71 314 41ZM249 160V590Q249 599 243 605T228 611H161Q153 611 147 605T140 590V111Q140 102 146 96T161 90H207L204 102Q201 109 197 113T189 118H186Q168 122 168 138Q168 146 174 152T188 160H241H249Z" />
<glyph unicode="R" glyph-name="R" horiz-adv-x="465" d="M392 41H395Q403 41 409 35T415 20Q415 12 409 6T395 0H274Q266 0 260 6T254 20Q254 38 271 40Q285 40 285 55L239 286H168V55Q168 49 171 45T176 40H179Q196 38 196 20Q196 12 190 6T175 0H70Q62 0 56
6T50 20Q50 38 67 40Q77 41 77 57V645Q77 652 75 656T70 660L67 661Q50 664 50 682Q50 690 56 696T70 702H270Q316 701 348 669T380 590V397Q380 336 329 303L380 54Q382 48 385 45T390 42L392 41ZM290 397V590Q290 599 284 605T269 611H168V377H273Q290 380 290
397Z" />
<glyph unicode="S" glyph-name="S" horiz-adv-x="369" d="M161 702H207Q253 702 286 670T319 591V539Q319 530 309 526L250 499Q246 497 243 497Q228 497 228 511V591Q228 599 222 605T207 612H161V611Q153 611 147 605T140 590V474Q140 462 185 423T274 341T319
280V112Q319 66 287 33T207 0H161Q115 0 83 32T50 111V163Q50 173 60 176L118 203Q122 205 126 205Q140 205 140 191V111Q140 103 146 97T161 90H207V91Q216 91 222 97T228 112V249Q228 261 184 300T95 381T50 443V590Q50 636 82 669T161 702Z" />
<glyph unicode="T" glyph-name="T" horiz-adv-x="455" d="M283 702H381H384Q393 702 399 696T405 682V604Q405 596 399 590T384 584Q367 584 364 601Q364 611 347 611H273V55Q273 49 275 45T280 40H283Q300 38 300 20Q300 12 294 6T280 0H175Q167 0 161 6T155
20Q155 38 172 40Q182 41 182 57V611H108H107Q100 611 96 609T92 604L91 601Q88 584 71 584Q63 584 57 590T50 604V682Q50 690 56 696T71 702H74H172H175H280H283Z" />
<glyph unicode="U" glyph-name="U" horiz-adv-x="435" d="M259 702H364Q373 702 379 696T385 682Q385 663 365 661Q357 661 356 646V111Q356 65 324 33T245 0H189Q143 0 110 32T77 111V647Q77 653 75 656T70 660L67 661Q50 664 50 682Q50 690 56 696T70 702H175Q183
702 189 696T196 682Q196 665 179 661Q168 661 168 645V106Q173 90 189 90H245Q254 90 260 96T266 111V517V520V647Q266 653 264 656T258 660L256 661Q239 664 239 682Q239 690 245 696T259 702Z" />
<glyph unicode="V" glyph-name="V" horiz-adv-x="505" d="M355 702H434Q443 702 449 696T455 682Q455 665 438 661Q423 661 418 640L298 54Q298 48 300 45T306 40H308Q325 38 325 20Q325 12 319 6T304 0H193Q184 0 178 6T172 20Q172 27 177 33T189 40Q198 41 199
54L83 650Q80 655 76 657T70 660L67 661Q50 664 50 682Q50 690 56 696T70 702H150Q167 702 170 685L250 274L334 682Q334 690 340 696T355 702Z" />
<glyph unicode="W" glyph-name="W" horiz-adv-x="714" d="M564 702H644Q652 702 658 696T664 682Q664 664 647 661Q633 661 628 640L507 54Q507 48 509 45T514 40H517Q534 38 534 20Q534 12 528 6T514 0H402Q394 0 388 6T382 20Q382 38 399 40Q408 41 409 54L355
332L298 54Q298 48 300 45T306 40H308Q325 38 325 20Q325 12 319 6T304 0H193Q184 0 178 6T172 20Q172 27 177 33T189 40Q198 41 199 54L83 650Q80 655 76 657T70 660L67 661Q50 664 50 682Q50 690 56 696T70 702H150Q167 702 170 685L250 274L334 682Q334 690
340 696T355 702H434Q443 702 449 696T455 682Q455 665 438 661Q423 661 418 640L403 566L459 274L544 682Q544 690 550 696T564 702Z" />
<glyph unicode="X" glyph-name="X" horiz-adv-x="506" d="M321 702H436Q444 702 450 696T456 682Q456 664 439 661Q434 660 428 647L303 351L426 57Q429 50 432 46T438 41L439 40Q456 38 456 20Q456 12 450 6T436 0H320Q312 0 306 6T300 20Q300 38 317 40Q318
40 318 40T321 42T325 44T327 49T327 56L253 232L179 56Q177 50 179 46T186 41L189 40Q206 38 206 20Q206 12 200 6T186 0H71Q62 0 56 6T50 20Q50 27 55 33T67 40Q73 42 80 57L203 351L78 647Q76 653 73 656T68 660L67 661Q50 664 50 682Q50 690 56 696T70 702H185Q194
702 200 696T206 682Q206 665 189 661Q188 661 186 661T181 657T178 648L253 470L328 648Q328 653 326 656T320 660L317 661Q300 665 300 682Q300 690 306 696T321 702Z" />
<glyph unicode="Y" glyph-name="Y" horiz-adv-x="506" d="M321 702H436Q444 702 450 696T456 682Q456 664 439 661Q434 660 428 647L303 351L299 340V55Q299 49 301 45T306 40H309Q326 38 326 20Q326 12 320 6T306 0H201Q192 0 186 6T180 20Q180 27 185 33T197
40Q208 41 208 57V340L203 351L78 647Q76 653 73 656T68 660L67 661Q50 664 50 682Q50 690 56 696T70 702H185Q194 702 200 696T206 682Q206 665 189 661Q188 661 186 661T181 657T178 648L253 470L328 648Q328 653 326 656T320 660L317 661Q300 665 300 682Q300
690 306 696T321 702Z" />
<glyph unicode="Z" glyph-name="Z" horiz-adv-x="412" d="M82 700H348H349Q362 700 362 686V660V649Q362 642 360 634T356 620L354 614L156 91H294H295Q302 91 306 93T310 98L311 101Q314 118 331 118Q340 118 346 112T352 98V20Q352 12 346 6T331 0H63Q50 0 50
13V37V55Q50 63 52 72T58 88L60 94L258 609H116Q109 609 105 607T100 601L99 598Q97 582 79 582Q71 582 65 588T59 602V679Q59 688 65 694T79 700H82Z" />
<glyph unicode="[" glyph-name="bracketleft" horiz-adv-x="267" d="M161 745H196Q205 745 211 739T217 724V675Q217 667 211 661T196 655H161V654Q153 654 147 648T140 633V59Q140 50 146 44T161 38H196Q205 38 211 32T217 17V-32Q217 -40 211 -46T196 -52H161Q115
-52 83 -20T50 59V633Q50 679 82 712T161 745Z" />
<glyph unicode="\" glyph-name="backslash" horiz-adv-x="381" d="M51 715H110Q118 715 124 709T130 694L351 21Q351 12 345 6T331 0H271Q263 0 257 6T251 21L30 694Q30 702 36 708T51 715Z" />
<glyph unicode="]" glyph-name="bracketright" horiz-adv-x="267" d="M70 747H105Q152 747 184 715T217 636V62Q217 16 184 -17T105 -50H70Q62 -50 56 -44T50 -29V20Q50 28 56 34T70 41H105Q114 41 120 47T126 62V636Q126 645 120 651T105 657H70Q62 657 56 663T50
678V727Q50 735 56 741T70 747Z" />
<glyph unicode="^" glyph-name="asciicircum" horiz-adv-x="490" d="M216 700H274Q288 700 298 679L439 526Q443 518 436 512T418 505H368Q349 505 339 526L245 618L151 526Q140 505 121 505H71Q62 505 55 511T51 526L192 679Q201 700 216 700Z" />
<glyph unicode="_" glyph-name="underscore" horiz-adv-x="432" d="M71 90H362Q370 90 376 84T382 70V21Q382 12 376 6T362 0H71Q62 0 56 6T50 21V70Q50 78 56 84T71 90Z" />
<glyph unicode="a" glyph-name="a" horiz-adv-x="517" d="M349 682L502 -69Q505 -76 509 -80T517 -86H520Q537 -88 537 -106Q537 -114 531 -120T517 -126H464Q459 -126 452 -125T430 -113T410 -80Q408 -74 408 -72L352 205H265L228 17V16V15Q224 0 208 0H128Q120
0 114 6T108 20Q108 38 125 40Q134 41 141 51L171 206H117Q95 207 81 217T64 238L61 249L50 301Q48 309 53 316T66 325Q82 329 89 313Q92 301 109 298H189L256 638Q258 646 255 652T248 660L245 661Q228 665 228 682Q228 690 234 696T249 702H328Q337 702 343 696T349
682ZM307 426L282 297H333L307 426Z" />
<glyph unicode="b" glyph-name="b" horiz-adv-x="425" d="M264 0H106Q98 0 92 6T86 20Q86 38 103 40Q113 41 113 57V314H110Q102 313 97 310T90 303L89 300Q84 284 66 287Q47 292 50 312L61 364Q62 368 64 374T80 393T113 407V645Q113 652 111 656T106 660L103
661Q86 664 86 682Q86 690 92 696T106 702H265Q311 701 343 669T375 590V427Q375 391 353 361Q375 333 375 295V112Q375 66 343 33T264 0ZM264 611H204V407H268Q285 410 285 427V590Q285 599 279 605T264 611ZM268 316H211Q209 315 204 315V91H268Q285 94 285 112V295Q285
313 268 316Z" />
<glyph unicode="c" glyph-name="c" horiz-adv-x="369" d="M207 0H161Q115 0 83 32T50 111V590Q50 636 82 669T161 702H207Q253 702 286 670T319 591V539Q318 539 318 538V537Q317 515 307 501T286 484L275 481L226 470Q218 468 211 473T201 486Q198 502 214 509Q226
512 228 529V591Q228 599 222 605T207 612H161V611Q153 611 147 605T140 590V111Q140 103 146 97T161 90H207Q216 90 222 96T228 111V232Q227 240 224 245T217 251L214 252Q198 259 201 276Q207 296 226 291L275 280Q277 280 279 279T289 274T302 265T312 249T318
224L319 163V111Q319 65 286 33T207 0Z" />
<glyph unicode="d" glyph-name="d" horiz-adv-x="389" d="M339 590V112Q339 66 307 33T228 0H70Q62 0 56 6T50 20Q50 38 67 40Q77 41 77 57V645Q77 652 75 656T70 660L67 661Q50 664 50 682Q50 690 56 696T70 702H229Q275 701 307 669T339 590ZM228 611H168V91H232Q249
94 249 112V590Q249 599 243 605T228 611Z" />
<glyph unicode="e" glyph-name="e" horiz-adv-x="381" d="M105 702H308H311Q319 702 325 696T331 682V604Q331 596 325 590T311 584Q293 584 291 601Q290 611 274 611H203V407H274Q283 407 289 401T295 386V336Q295 328 289 322T274 316H203V91H274Q281 91 285
93T290 98L291 101Q293 118 311 118Q319 118 325 112T331 98V20Q331 12 325 6T311 0H308H186H183H105Q97 0 91 6T85 20Q85 38 102 40Q112 41 112 57V319H110Q102 318 97 314T90 307L89 304Q84 288 66 292Q58 293 53 300T50 316L61 368Q62 372 64 378T79 397T112
411V645Q112 652 110 656T104 660L102 661Q85 664 85 682Q85 690 91 696T105 702Z" />
<glyph unicode="f" glyph-name="f" horiz-adv-x="381" d="M105 702H307H310Q319 702 325 696T331 682V604Q331 596 325 590T310 584Q293 584 290 601Q290 611 274 611H273H203V407H274Q282 407 288 401T294 386V336Q294 328 288 322T274 316H203V55Q203 49 205
45T210 40H213Q230 38 230 20Q230 12 224 6T210 0H105Q96 0 90 6T84 20Q84 27 89 33T101 40Q112 41 112 57V319H110Q102 318 97 314T90 307L89 304Q84 288 66 292Q58 293 53 300T50 316L61 368Q62 372 64 378T79 397T112 411V645Q112 652 109 656T104 660L101 661Q84
665 84 682Q84 690 90 696T105 702Z" />
<glyph unicode="g" glyph-name="g" horiz-adv-x="432" d="M232 408H323Q331 409 336 412T342 419L343 422Q349 439 366 434Q374 433 379 426T382 410L371 358Q370 354 368 347T352 329T319 315V111Q319 65 286 33T207 0H161Q115 0 83 32T50 111V590Q50 636 82
669T161 702H207Q253 702 286 670T319 591V539Q319 530 309 526L250 499Q246 497 243 497Q228 497 228 511V591Q228 599 222 605T207 612H161V611Q153 611 147 605T140 590V111Q140 103 146 97T161 90H207Q216 90 222 96T228 111V315H224Q216 314 211 310T205 303L204
300Q199 284 181 288Q173 289 168 296T165 312L176 364Q177 369 179 375T196 394T232 408Z" />
<glyph unicode="h" glyph-name="h" horiz-adv-x="421" d="M344 645V-67Q345 -75 349 -80T356 -86L359 -87Q375 -92 371 -110Q370 -118 363 -123T347 -126L295 -115Q293 -115 291 -114T281 -109T268 -100T258 -83T252 -59V316H168V55Q168 49 170 45T176 40H178Q195
38 195 20Q195 12 189 6T175 0H70Q62 0 56 6T50 20Q50 38 67 40Q77 41 77 57V647Q77 653 75 656T70 660L67 661Q50 664 50 682Q50 690 56 696T70 702H175Q183 702 189 696T195 682Q195 664 178 661Q168 661 168 645V407H252V647Q252 653 250 656T244 660L242 661Q225
664 225 682Q225 690 231 696T245 702H350Q358 702 364 696T371 682Q371 665 354 661Q353 661 351 661T347 656T344 645Z" />
<glyph unicode="i" glyph-name="i" horiz-adv-x="246" d="M175 0H70Q62 0 56 6T50 20Q50 38 67 40Q77 41 77 57V647Q77 653 75 656T70 660L67 661Q50 664 50 682Q50 690 56 696T70 702H175Q183 702 189 696T196 682Q196 665 179 661Q168 661 168 645V55Q168 49
171 45T176 40H179Q196 38 196 20Q196 12 190 6T175 0Z" />
<glyph unicode="j" glyph-name="j" horiz-adv-x="364" d="M241 817L290 828Q298 830 305 825T314 812Q318 794 302 789Q290 786 288 768V111Q288 65 255 33T176 0H161Q115 0 83 32T50 111V238Q50 252 64 252Q68 252 72 250L130 223Q140 220 140 210V111Q140 103
146 97T161 90H176Q185 90 191 96T197 111V761Q198 782 209 796T230 814L241 817Z" />
<glyph unicode="k" glyph-name="k" horiz-adv-x="514" d="M175 0H70Q62 0 56 6T50 20Q50 38 67 40Q77 41 77 57V647Q77 653 75 656T70 660L67 661Q50 664 50 682Q50 690 56 696T70 702H175Q183 702 189 696T196 682Q196 665 179 661Q168 661 168 645V448L270 648Q271
661 259 661Q242 664 242 682Q242 690 248 696T262 702H386Q394 702 400 696T406 682Q406 673 400 667T386 661T371 648Q371 647 369 645L246 417L427 -64V-65Q429 -74 434 -79T443 -85L447 -86Q454 -87 459 -93T464 -106Q464 -114 458 -120T443 -126H388Q353 -127
338 -91L337 -90Q337 -88 336 -87L187 309L168 274V55Q168 49 171 45T176 40H179Q196 38 196 20Q196 12 190 6T175 0Z" />
<glyph unicode="l" glyph-name="l" horiz-adv-x="346" d="M148 0H70Q62 0 56 6T50 20Q50 38 67 40Q77 41 77 57V645Q77 652 75 656T70 660L67 661Q50 664 50 682Q50 690 56 696T70 702H175Q183 702 189 696T196 682Q196 665 179 661Q168 661 168 645V91H239Q247
91 251 93T256 98V101Q259 118 276 118Q284 118 290 112T296 98V20Q296 12 290 6T276 0H273H152H148Z" />
<glyph unicode="m" glyph-name="m" horiz-adv-x="554" d="M168 446V55Q168 49 171 45T176 40H179Q196 38 196 20Q196 12 190 6T175 0H70Q62 0 56 6T50 20Q50 38 67 40Q77 41 77 57V647Q77 653 75 656T70 660L67 661Q50 664 50 682Q50 690 56 696T70 702H164Q181
702 184 685L275 388L368 688Q373 702 387 702H482Q490 702 496 696T502 682Q502 664 485 661Q475 661 475 645L477 625V-67Q478 -75 481 -80T488 -86L491 -87Q498 -89 501 -96T504 -110Q502 -118 495 -123T479 -126L427 -115Q425 -115 423 -114T413 -109T400 -100T390
-83T384 -59V450L310 219Q301 194 275 194Q250 194 242 216L168 446Z" />
<glyph unicode="n" glyph-name="n" horiz-adv-x="474" d="M396 432V55Q396 49 399 45T404 40H407Q424 38 424 20Q424 12 418 6T403 0H309Q294 0 289 15L288 14L179 388L168 448V55Q168 49 171 45T176 40H179Q196 38 196 20Q196 12 190 6T175 0H70Q62 0 56 6T50
20Q50 38 67 40Q77 41 77 57V647Q77 653 75 656T70 660L67 661Q50 664 50 682Q50 690 56 696T70 702H164Q178 702 183 688L295 296L305 237V761Q306 782 317 796T338 814L349 817L399 828Q407 830 414 825T423 812Q427 794 411 789Q399 786 396 768V646Q396 645
397 645V432H396Z" />
<glyph unicode="o" glyph-name="o" horiz-adv-x="389" d="M161 702H228Q274 702 306 670T339 591V111Q339 65 307 33T228 0H161Q115 0 83 32T50 111V590Q50 636 82 669T161 702ZM249 111V591Q249 599 243 605T228 612H161V611Q153 611 147 605T140 590V111Q140
103 146 97T161 90H228Q237 90 243 96T249 111Z" />
<glyph unicode="p" glyph-name="p" horiz-adv-x="441" d="M101 702H281Q327 701 359 669T391 590V397Q391 351 359 319T280 286H199V55Q199 49 202 45T208 40H210Q227 38 227 20Q227 12 221 6T206 0H101Q93 0 87 6T81 20Q81 38 98 40Q108 41 108 57V285Q101 284
96 281T90 274L89 271Q87 264 80 261T66 258Q47 263 50 282L61 335Q62 339 64 345T78 362T108 377V645Q108 652 106 656T100 660L98 661Q81 664 81 682Q81 690 87 696T101 702ZM301 397V590Q301 599 295 605T280 611H199V377H284Q301 381 301 397Z" />
<glyph unicode="q" glyph-name="q" d="M293 21L312 -71Q315 -78 319 -82T327 -88H330Q347 -91 347 -108Q347 -116 341 -122T326 -128H273Q268 -128 261 -127T239 -115T219 -83Q218 -80 218 -74L203 0H161Q115 0 83 32T50 111V590Q50 636 82 669T161 702H228Q274
702 306 670T339 591V111Q339 54 293 21ZM140 209H209Q232 209 249 190V591Q249 599 243 605T228 612H161V611Q153 611 147 605T140 590V209ZM140 170V111Q140 103 146 97T161 90H183L170 152Q167 159 163 163T155 168L152 169Q151 169 147 169T140 170Z" />
<glyph unicode="r" glyph-name="r" horiz-adv-x="449" d="M318 297L393 -71Q396 -78 401 -82T409 -88H412Q429 -92 429 -108Q429 -116 423 -122T408 -128H355Q350 -128 343 -127T321 -115T301 -83Q300 -81 300 -78T299 -74L227 286H168V55Q168 49 171 45T176 40H179Q196
38 196 20Q196 12 190 6T175 0H70Q62 0 56 6T50 20Q50 38 67 40Q77 41 77 57V645Q77 652 75 656T70 660L67 661Q50 664 50 682Q50 690 56 696T70 702H270Q316 701 348 669T380 590V397Q380 365 363 338T318 297ZM290 397V590Q290 599 284 605T269 611H168V377H273Q290
380 290 397Z" />
<glyph unicode="s" glyph-name="s" horiz-adv-x="395" d="M188 702H234Q280 702 312 670T345 591V539Q345 529 335 526L277 499Q273 497 269 497Q255 497 255 511V591Q255 599 249 605T234 612H188V611Q179 611 173 605T167 590V474Q167 462 211 423T300 341T345
280V112Q345 66 313 33T234 0H188Q142 0 110 32T77 111V204Q76 211 72 216T65 222L62 223H63Q47 230 50 246Q55 264 74 261L124 250Q128 249 135 247T154 231T167 196V191V111Q167 103 173 97T188 90H234V91Q243 91 249 97T255 112V249Q255 261 211 300T122 381T77
443V590Q77 637 109 669T188 702Z" />
<glyph unicode="t" glyph-name="t" horiz-adv-x="454" d="M283 702H381H384Q392 702 398 696T404 682V604Q404 596 398 590T384 584Q367 584 364 601Q364 611 347 611H273V55Q273 49 275 45T280 40H283Q300 38 300 20Q300 12 294 6T280 0H175Q166 0 160 6T154
20Q154 27 159 33T171 40Q182 41 182 57V611H108H107Q100 611 96 609T90 604V601Q88 584 70 584Q62 584 56 590T50 604V682Q50 690 56 696T70 702H74H172H175H280H283Z" />
<glyph unicode="u" glyph-name="u" horiz-adv-x="434" d="M310 817L359 828Q367 830 374 825T384 812Q385 805 382 798T371 789Q359 786 357 768V111Q357 65 324 33T245 0H189Q143 0 111 32T78 111V647Q78 653 76 656T70 660L68 661Q50 665 50 682Q50 690 56 696T71
702H176Q184 702 190 696T196 682Q196 664 179 661Q169 661 169 645V106Q173 90 189 90H245Q254 90 260 96T266 111V517Q266 518 266 518L267 520V761Q268 782 278 796T300 814L310 817Z" />
<glyph unicode="v" glyph-name="v" horiz-adv-x="529" d="M406 828H459Q467 828 473 822T479 808Q479 790 462 788V787Q450 787 444 771L298 55Q298 49 300 45T306 40H308Q325 38 325 20Q325 12 319 6T304 0H193Q184 0 178 6T172 20Q172 27 177 33T189 40Q198
41 199 54L83 650Q80 655 76 657T70 660L67 661Q50 664 50 682Q50 690 56 696T70 702H150Q167 702 170 685L249 276L350 774Q350 776 352 782Q357 803 370 814T395 827L406 828Z" />
<glyph unicode="w" glyph-name="w" horiz-adv-x="741" d="M618 828H671Q679 828 685 822T691 808Q691 790 674 788V787Q662 787 656 771L508 49Q509 45 511 43T516 40H517Q534 38 534 20Q534 12 528 6T514 0H402Q394 0 388 6T382 20Q382 38 399 40Q408 41 409
54L355 332L298 54Q298 48 300 45T306 40H308Q325 38 325 20Q325 12 319 6T304 0H193Q184 0 178 6T172 20Q172 27 177 33T189 40Q198 41 199 54L83 650Q80 655 76 657T70 660L67 661Q50 664 50 682Q50 690 56 696T70 702H150Q167 702 170 685L250 274L334 682Q334
690 340 696T355 702H434Q443 702 449 696T455 682Q455 665 438 661Q423 661 418 640L403 566L460 270L562 774Q562 776 564 782Q569 803 582 814T607 827L618 828Z" />
<glyph unicode="x" glyph-name="x" horiz-adv-x="554" d="M302 349L475 -67Q479 -76 484 -81T494 -87L497 -88Q514 -91 514 -108Q514 -116 508 -122T494 -128H438Q434 -128 427 -128T406 -117T386 -88L253 231L179 56Q177 50 179 46T186 41L189 40Q206 38 206
20Q206 12 200 6T186 0H71Q62 0 56 6T50 20Q50 27 55 33T67 40Q73 42 80 57L203 350L78 649Q75 654 73 657T68 660L67 661Q50 664 50 682Q50 690 56 696T70 702H185Q194 702 200 696T206 682Q206 665 189 661Q188 661 186 660T181 656T179 647L253 469L328 648Q328
653 326 656T320 660L317 661Q300 665 300 682Q300 690 306 696T321 702H436Q444 702 450 696T456 682Q456 664 439 661Q434 660 428 647L302 349Z" />
<glyph unicode="y" glyph-name="y" horiz-adv-x="536" d="M440 830H496Q504 830 510 824T516 810Q516 792 499 790Q486 789 477 769L303 351L299 340V55Q299 49 301 45T306 40H309Q326 38 326 20Q326 12 320 6T306 0H201Q192 0 186 6T180 20Q180 27 185 33T197
40Q208 41 208 57V340L203 351L78 647Q76 653 73 656T68 660L67 661Q50 664 50 682Q50 690 56 696T70 702H185Q194 702 200 696T206 682Q206 665 189 661Q188 661 186 661T181 657T178 648L253 470V469L388 790V789Q394 808 407 818T430 829L440 830Z" />
<glyph unicode="z" glyph-name="z" horiz-adv-x="412" d="M82 692H348H349Q362 692 362 678V652V641Q362 634 360 626T356 612L354 606L156 91H294H295Q302 91 306 93T310 98L311 101Q314 118 331 118Q340 118 346 112T352 98V20Q352 12 346 6T331 0H63Q50 0 50
13V37V55Q50 63 52 72T58 88L60 94L258 601H116Q109 601 105 599T100 593L99 590Q97 574 79 574Q71 574 65 580T59 594V671Q59 680 65 686T79 692H82Z" />
<glyph unicode="{" glyph-name="braceleft" horiz-adv-x="346" d="M241 747H276Q284 747 290 741T296 727V678Q296 669 290 663T276 657H241Q232 657 226 651T220 636V410Q220 373 198 343Q220 315 220 277V62Q220 53 226 47T241 41V40H276Q284 40 290 34T296
20V-29Q296 -38 290 -44T276 -50H241Q195 -50 162 -17T130 62V277H129Q129 286 123 292T109 298H70Q62 298 56 304T50 319V368Q50 376 56 382T70 389H108H109Q117 389 123 395T129 410V636Q129 682 162 714T241 747Z" />
<glyph unicode="}" glyph-name="braceright" horiz-adv-x="347" d="M238 392H276Q285 392 291 386T297 371V322Q297 314 291 308T276 302H237Q217 300 217 281V65Q217 19 185 -13T106 -46H71Q63 -46 57 -40T50 -26V23Q50 32 56 38T71 44H106Q115 44 121 50T127
65V281Q127 317 149 347Q127 375 127 413V639Q127 648 121 654T106 661H71Q63 661 57 667T50 681V730Q50 738 56 744T71 751H106Q152 751 184 718T217 639V413Q217 394 237 392H238Z" />
</font>
</defs>
</svg>
